<?xml version="1.0" standalone="no"?>
<!DOCTYPE svg PUBLIC "-//W3C//DTD SVG 20010904//EN"
 "http://www.w3.org/TR/2001/REC-SVG-20010904/DTD/svg10.dtd">
<svg version="1.0" xmlns="http://www.w3.org/2000/svg"
 width="225.000000pt" height="225.000000pt" viewBox="0 0 225.000000 225.000000"
 preserveAspectRatio="xMidYMid meet">

<g transform="translate(0.000000,225.000000) scale(0.100000,-0.100000)"
fill="#000000" stroke="none">
<path d="M1023 2148 c-24 -4 -50 -11 -59 -16 -34 -19 -136 -172 -198 -298 -37
-74 -97 -182 -134 -241 -37 -60 -85 -139 -107 -178 -21 -38 -51 -89 -67 -112
-15 -23 -55 -95 -87 -160 -33 -65 -88 -170 -123 -233 -35 -63 -78 -149 -96
-190 -19 -41 -47 -102 -63 -134 -16 -32 -29 -75 -29 -95 0 -46 48 -148 94
-199 44 -48 83 -66 133 -59 21 3 67 -1 103 -9 89 -19 421 -79 555 -100 78 -13
170 -18 317 -19 l206 0 39 31 c31 25 62 80 171 295 96 190 142 271 164 288 37
30 89 137 99 206 7 50 82 252 156 420 65 147 94 241 91 293 -3 43 -5 47 -30
50 -25 3 -28 7 -28 43 0 48 -19 95 -53 131 -25 27 -36 31 -387 137 -354 106
-600 161 -667 149z m202 -47 c72 -16 220 -56 330 -89 110 -34 259 -77 330 -98
162 -45 180 -55 205 -104 28 -54 25 -119 -9 -215 -82 -234 -173 -469 -187
-484 -2 -2 -15 4 -29 13 -14 9 -31 14 -37 10 -7 -4 -8 -3 -4 4 4 7 2 12 -3 12
-18 0 -26 -5 -23 -13 1 -5 -2 -6 -7 -2 -6 3 -8 12 -5 20 4 10 -6 16 -33 21
-40 7 -50 5 -45 -10 2 -5 -4 -4 -12 4 -9 7 -16 23 -16 35 0 20 -10 26 -72 45
-156 47 -382 92 -468 93 -100 1 -141 -16 -205 -84 -22 -23 -34 -39 -28 -35 9
5 11 2 7 -8 -3 -9 -10 -13 -15 -10 -17 10 -9 -100 10 -141 21 -46 55 -80 71
-70 6 3 9 1 8 -5 -2 -6 18 -20 45 -30 31 -12 47 -14 47 -7 0 7 5 5 10 -3 9
-14 24 -19 78 -23 12 -1 22 -5 22 -9 0 -4 46 -21 103 -38 56 -17 113 -36 127
-42 20 -8 27 -6 41 11 12 15 19 17 28 8 6 -6 11 -17 11 -24 0 -16 1 -16 35 -3
14 5 24 13 22 18 -3 4 9 7 26 7 21 0 31 4 29 13 -1 8 2 11 7 7 6 -3 7 -13 4
-22 -5 -13 -2 -15 21 -9 19 5 25 3 21 -4 -4 -6 -3 -9 2 -8 4 1 29 -4 55 -11
l47 -13 -20 -52 c-30 -76 -138 -252 -189 -309 -73 -81 -126 -93 -261 -57 -41
11 -150 31 -242 45 -93 14 -246 45 -340 69 -290 74 -534 115 -579 97 -34 -13
-34 -13 -6 44 23 46 32 53 44 33 4 -6 3 -8 -3 -5 -12 8 -26 -20 -17 -34 10
-16 43 -9 49 11 3 10 27 52 54 92 26 40 79 134 118 208 39 74 110 203 158 285
49 83 130 229 180 325 120 228 228 416 267 462 32 39 32 62 0 37 -10 -8 4 7
32 33 29 27 58 46 66 43 8 -2 74 -18 145 -34z m-275 -34 c0 -2 -10 -12 -22
-23 l-23 -19 19 23 c18 21 26 27 26 19z m-83 -122 c0 -8 -4 -12 -9 -9 -5 3 -6
10 -3 15 9 13 12 11 12 -6z m-17 -89 c0 -3 -4 -8 -10 -11 -5 -3 -10 -1 -10 4
0 6 5 11 10 11 6 0 10 -2 10 -4z m1239 -376 c-23 -49 -44 -89 -46 -87 -4 5 43
135 62 169 8 14 16 34 16 45 1 10 4 6 6 -9 3 -17 -11 -59 -38 -118z m-1427 88
c-7 -7 -12 -8 -12 -2 0 14 12 26 19 19 2 -3 -1 -11 -7 -17z m1495 0 c-3 -8 -6
-5 -6 6 -1 11 2 17 5 13 3 -3 4 -12 1 -19z m-18 -60 c-7 -12 -13 -30 -14 -38
-1 -8 -6 -23 -12 -34 -9 -16 -11 -17 -16 -2 -4 10 -1 19 8 22 8 4 12 10 9 15
-3 5 3 22 12 39 21 34 32 33 13 -2z m-1498 -5 c12 -16 12 -17 -2 -6 -9 7 -20
9 -24 5 -5 -4 -5 -1 -1 6 9 16 11 15 27 -5z m-38 -98 c-3 -9 -8 -14 -10 -11
-3 3 -2 9 2 15 9 16 15 13 8 -4z m1487 1 c0 -8 -7 -16 -15 -20 -12 -4 -13 -2
-2 14 14 24 17 25 17 6z m-35 -76 c3 -5 1 -10 -4 -10 -6 0 -11 5 -11 10 0 6 2
10 4 10 3 0 8 -4 11 -10z m-730 -35 c61 -13 138 -31 171 -40 l59 -17 -30 -32
c-35 -38 -85 -180 -85 -245 0 -41 -1 -42 -27 -37 -16 3 -46 8 -68 12 -22 4
-55 13 -73 21 -18 7 -80 25 -139 39 -115 27 -147 40 -138 55 4 5 1 8 -6 7 -19
-4 -48 62 -48 112 -1 76 46 130 134 151 41 9 119 1 250 -26z m-801 -27 c-3 -4
-9 -8 -15 -8 -5 0 -9 4 -9 8 0 5 7 9 15 9 8 0 12 -4 9 -9z m-34 -8 c0 -5 -2
-10 -4 -10 -3 0 -8 5 -11 10 -3 6 -1 10 4 10 6 0 11 -4 11 -10z m1528 -35 c-3
-3 -9 2 -12 12 -6 14 -5 15 5 6 7 -7 10 -15 7 -18z m-1548 1 c0 -3 -4 -8 -10
-11 -5 -3 -10 -1 -10 4 0 6 5 11 10 11 6 0 10 -2 10 -4z m1150 -52 c0 -6 -81
-247 -84 -251 -6 -7 -45 11 -50 23 -5 14 59 199 77 222 9 12 57 17 57 6z m124
-43 c-4 -3 -9 0 -11 7 -3 6 -10 9 -15 6 -7 -4 -8 -2 -4 5 6 9 11 9 22 0 8 -6
12 -15 8 -18z m190 -30 c-9 -23 -18 -40 -21 -38 -2 3 4 23 13 46 9 23 18 40
21 38 2 -3 -4 -23 -13 -46z m-1504 9 c-6 -11 -13 -20 -16 -20 -2 0 0 9 6 20 6
11 13 20 16 20 2 0 0 -9 -6 -20z m1402 -41 c21 -11 44 -29 52 -42 17 -27 31
-87 19 -87 -4 0 -14 -14 -22 -32 -8 -17 -22 -39 -32 -49 -17 -17 -18 -17 -34
1 -23 26 -106 59 -177 72 l-59 10 26 28 c15 16 28 40 29 54 0 14 4 26 9 26 4
0 7 18 7 39 l0 39 73 -20 c39 -11 89 -29 109 -39z m-891 -16 c13 -16 12 -17
-3 -4 -10 7 -18 15 -18 17 0 8 8 3 21 -13z m-616 -73 c-9 -16 -18 -30 -21 -30
-2 0 2 14 11 30 9 17 18 30 21 30 2 0 -2 -13 -11 -30z m23 -24 c-7 -8 -15 -12
-17 -11 -5 6 10 25 20 25 5 0 4 -6 -3 -14z m877 -16 c-3 -5 -12 -10 -18 -10
-7 0 -6 4 3 10 19 12 23 12 15 0z m-915 -25 c11 -13 10 -14 -4 -9 -9 3 -16 10
-16 15 0 13 6 11 20 -6z m1372 -22 c-6 -2 -9 -10 -6 -15 4 -7 2 -8 -4 -4 -18
11 -14 26 6 25 10 0 12 -3 4 -6z m-1411 -12 c-7 -5 -10 -14 -7 -20 4 -6 3 -11
-3 -11 -6 0 -7 -7 -4 -17 4 -11 3 -14 -5 -9 -7 4 -12 3 -12 -2 0 -6 -7 -12
-14 -15 -10 -4 -13 -1 -9 9 3 7 9 14 13 14 4 0 13 14 19 30 5 17 16 30 23 30
10 0 10 -2 -1 -9z m1263 -20 c3 -5 -1 -12 -10 -15 -8 -3 -13 -2 -9 3 3 5 -1
12 -7 14 -8 4 -7 6 4 6 9 1 19 -3 22 -8z m247 -140 c-64 -106 -74 -113 -26
-16 25 49 45 98 46 110 0 18 1 18 10 -4 8 -20 3 -35 -30 -90z m-1548 45 c-6
-23 -9 -24 -20 -7 -10 16 -9 19 5 17 9 -2 16 -6 15 -10z m-13 -50 c0 -2 -8
-10 -17 -17 -16 -13 -17 -12 -4 4 13 16 21 21 21 13z m-80 -168 c-11 -12 -20
-34 -20 -50 0 -41 39 -136 69 -169 24 -27 29 -29 61 -19 22 7 42 7 55 1 58
-28 215 -71 306 -86 206 -32 734 -87 776 -81 55 7 98 30 135 70 29 30 79 118
84 144 3 18 12 27 20 19 8 -7 -74 -159 -108 -201 -39 -47 -93 -60 -225 -53
-164 9 -417 34 -502 51 -42 8 -130 24 -196 36 -66 11 -154 27 -195 35 -42 8
-100 15 -129 15 -50 0 -57 3 -94 42 -42 45 -85 126 -93 180 -7 39 25 88 57 88
19 0 19 0 -1 -22z m306 -13 c45 -8 155 -33 245 -55 89 -22 172 -41 183 -41 12
-1 5 -5 -14 -8 -32 -6 -30 -7 28 -14 34 -5 67 -5 72 -2 11 7 249 -29 382 -58
l96 -21 4 -33 c3 -25 0 -33 -12 -34 -13 0 -13 -1 0 -6 14 -6 30 -22 30 -33 0
-43 -389 -22 -633 35 -36 8 -139 26 -229 40 -167 25 -297 52 -310 64 -9 8 -11
32 -8 127 l2 71 42 -9 c22 -5 78 -16 122 -23z m1264 25 c0 -5 -5 -10 -11 -10
-5 0 -7 5 -4 10 3 6 8 10 11 10 2 0 4 -4 4 -10z m-25 -58 c-3 -3 -11 0 -18 7
-9 10 -8 11 6 5 10 -3 15 -9 12 -12z m-25 -38 c0 -8 -19 -13 -24 -6 -3 5 1 9
9 9 8 0 15 -2 15 -3z m-1430 -33 c-15 -29 -12 -49 8 -54 13 -4 12 -5 -5 -6
-12 0 -23 5 -26 12 -4 12 19 67 29 67 2 0 0 -9 -6 -19z m713 -8 c-7 -2 -21 -2
-30 0 -10 3 -4 5 12 5 17 0 24 -2 18 -5z m700 -8 c-3 -9 -8 -14 -10 -11 -3 3
-2 9 2 15 9 16 15 13 8 -4z m-99 -47 c-15 -23 -37 -62 -50 -87 -18 -37 -24
-42 -30 -28 -4 11 0 25 11 37 10 11 15 23 12 26 -4 4 -9 -1 -13 -10 -10 -26
-21 -19 -21 14 0 17 4 30 9 30 5 0 6 -5 3 -11 -4 -5 17 8 47 30 29 23 54 41
56 41 1 0 -10 -19 -24 -42z m-1054 -78 c-8 -5 -22 -9 -30 -9 -10 0 -8 3 5 9
27 12 43 12 25 0z m54 -29 c-2 -3 -12 3 -22 13 -16 17 -16 18 5 5 12 -7 20
-15 17 -18z m31 19 c3 -6 -1 -7 -9 -4 -18 7 -21 14 -7 14 6 0 13 -4 16 -10z
m143 -35 c-3 -3 -9 2 -12 12 -6 14 -5 15 5 6 7 -7 10 -15 7 -18z m-43 -3 c-3
-3 -11 0 -18 7 -9 10 -8 11 6 5 10 -3 15 -9 12 -12z m832 -2 c-1 -12 -5 -16
-10 -11 -5 5 -6 14 -3 20 11 16 15 13 13 -9z m-644 -14 c4 -10 1 -13 -9 -9
-15 6 -19 23 -5 23 5 0 11 -7 14 -14z m578 -43 c-25 -10 -37 -11 -45 -3 -8 8
-7 10 5 5 10 -4 19 -3 22 2 3 5 16 9 29 10 18 1 16 -2 -11 -14z m-244 1 c-3
-3 -12 -4 -19 -1 -8 3 -5 6 6 6 11 1 17 -2 13 -5z"/>
<path d="M2056 1780 c4 -8 11 -30 15 -50 7 -35 7 -35 8 -4 0 16 -6 39 -15 50
-8 10 -12 12 -8 4z"/>
<path d="M518 583 c6 -2 18 -2 25 0 6 3 1 5 -13 5 -14 0 -19 -2 -12 -5z"/>
<path d="M578 573 c7 -3 16 -2 19 1 4 3 -2 6 -13 5 -11 0 -14 -3 -6 -6z"/>
<path d="M768 533 c7 -3 16 -2 19 1 4 3 -2 6 -13 5 -11 0 -14 -3 -6 -6z"/>
<path d="M808 523 c7 -3 16 -2 19 1 4 3 -2 6 -13 5 -11 0 -14 -3 -6 -6z"/>
<path d="M1485 429 c-18 -11 -50 -20 -80 -21 -40 -1 -43 -2 -16 -5 48 -6 91 4
121 27 32 25 14 25 -25 -1z"/>
<path d="M1046 1288 c-28 -21 -65 -109 -61 -148 1 -21 8 -26 46 -32 51 -9 48
-11 96 101 30 70 31 77 16 89 -23 16 -66 12 -97 -10z m63 -44 c-41 -96 -57
-114 -86 -96 -10 6 -4 25 23 75 29 54 40 67 59 67 l24 0 -20 -46z"/>
<path d="M1160 1198 c-11 -18 -20 -40 -20 -48 0 -8 10 5 22 29 12 25 24 39 26
33 2 -7 7 -10 12 -7 5 3 0 -13 -11 -34 -10 -22 -19 -45 -19 -51 0 -6 -4 -9 -9
-6 -5 3 -11 0 -14 -7 -3 -8 4 -14 18 -15 19 -1 27 9 49 60 15 33 25 62 24 64
-2 1 -15 5 -30 9 -23 6 -30 2 -48 -27z"/>
<path d="M1270 1188 c-21 -20 -37 -65 -26 -75 3 -4 6 2 6 13 0 10 5 26 11 34
8 12 9 9 5 -12 -5 -21 -3 -28 9 -28 8 0 15 -7 15 -16 0 -12 -6 -15 -25 -10
-18 5 -25 2 -25 -8 0 -7 9 -16 20 -19 17 -4 25 5 50 60 17 36 30 67 30 68 0 2
-11 5 -25 7 -15 3 -32 -2 -45 -14z m40 -2 c0 -14 -21 -56 -28 -56 -6 0 -8 41
-3 58 2 4 31 2 31 -2z"/>
<path d="M1378 1166 c-23 -17 -38 -51 -38 -85 0 -24 5 -32 24 -37 28 -7 46 1
46 19 0 7 9 30 20 51 10 22 17 42 15 46 -8 13 -52 17 -67 6z m34 -18 c-6 -7
-14 -31 -18 -53 -4 -22 -9 -34 -11 -27 -3 6 -9 12 -14 12 -6 0 -7 -4 -4 -10 3
-5 1 -10 -4 -10 -16 0 -13 53 5 78 8 12 24 22 36 22 15 0 18 -3 10 -12z"/>
<path d="M1045 1030 c11 -5 27 -9 35 -9 9 0 8 4 -5 9 -11 5 -27 9 -35 9 -9 0
-8 -4 5 -9z"/>
<path d="M1846 934 c-23 -50 -15 -53 13 -4 12 22 18 40 13 40 -4 0 -16 -16
-26 -36z"/>
<path d="M419 504 c49 -15 201 -38 208 -30 3 2 -22 7 -54 11 -32 4 -86 13
-121 21 -78 17 -91 17 -33 -2z"/>
<path d="M435 460 c11 -5 27 -9 35 -9 9 0 8 4 -5 9 -11 5 -27 9 -35 9 -9 0 -8
-4 5 -9z"/>
<path d="M492 446 c7 -9 190 -39 373 -62 66 -8 136 -19 155 -24 19 -6 51 -9
70 -9 43 1 -63 23 -190 39 -47 6 -125 17 -175 25 -49 8 -112 17 -140 20 -27 4
-61 9 -75 12 -14 3 -22 3 -18 -1z"/>
<path d="M778 433 c7 -3 16 -2 19 1 4 3 -2 6 -13 5 -11 0 -14 -3 -6 -6z"/>
<path d="M398 413 c7 -3 16 -2 19 1 4 3 -2 6 -13 5 -11 0 -14 -3 -6 -6z"/>
<path d="M431 405 c13 -12 310 -65 424 -75 72 -6 177 -15 235 -20 58 -6 130
-9 160 -8 59 1 57 2 -250 27 -191 15 -298 29 -434 57 -121 24 -143 28 -135 19z"/>
<path d="M328 393 c6 -2 18 -2 25 0 6 3 1 5 -13 5 -14 0 -19 -2 -12 -5z"/>
<path d="M422 370 c32 -10 99 -25 150 -35 51 -9 138 -25 193 -36 55 -11 174
-24 265 -29 91 -5 183 -14 205 -19 22 -6 67 -10 100 -9 37 1 46 3 25 5 -19 2
-73 11 -120 19 -47 8 -143 17 -215 20 -118 5 -506 65 -606 94 -59 17 -57 9 3
-10z"/>
<path d="M1143 343 c9 -2 25 -2 35 0 9 3 1 5 -18 5 -19 0 -27 -2 -17 -5z"/>
<path d="M1310 320 c25 -8 127 -13 119 -6 -2 2 -35 6 -74 9 -41 3 -60 2 -45
-3z"/>
<path d="M1318 293 c7 -3 16 -2 19 1 4 3 -2 6 -13 5 -11 0 -14 -3 -6 -6z"/>
</g>
</svg>
