<?xml version="1.0" standalone="no"?>
<!DOCTYPE svg PUBLIC "-//W3C//DTD SVG 20010904//EN"
 "http://www.w3.org/TR/2001/REC-SVG-20010904/DTD/svg10.dtd">
<svg version="1.0" xmlns="http://www.w3.org/2000/svg"
 width="225.000000pt" height="225.000000pt" viewBox="0 0 225.000000 225.000000"
 preserveAspectRatio="xMidYMid meet">

<g transform="translate(0.000000,225.000000) scale(0.100000,-0.100000)"
fill="#000000" stroke="none">
<path d="M1139 2217 c-8 -23 -4 -35 10 -34 21 1 24 24 4 31 -7 3 -13 4 -14 3z"/>
<path d="M1572 2161 c-2 -33 -5 -42 -16 -38 -11 4 -13 1 -9 -10 5 -13 1 -15
-30 -9 -24 4 -37 3 -37 -4 0 -5 16 -10 35 -10 29 0 33 -3 28 -17 -6 -16 -5
-16 10 -4 15 12 17 9 19 -30 l1 -44 6 45 c6 45 6 45 51 51 l45 6 -44 1 c-35 2
-42 5 -33 14 17 17 15 33 -2 19 -12 -11 -15 -5 -19 31 l-4 43 -1 -44z"/>
<path d="M1313 2149 c-2 -22 29 -18 33 4 1 9 -5 15 -15 14 -9 0 -18 -9 -18
-18z"/>
<path d="M1020 2050 c-25 -8 -25 -8 -2 -9 13 -1 21 -4 19 -8 -3 -5 5 -8 18 -8
13 0 21 3 18 8 -2 4 6 7 19 8 23 1 23 1 -2 9 -14 4 -29 8 -35 8 -5 0 -21 -4
-35 -8z"/>
<path d="M1278 2007 c-84 -21 -128 -36 -130 -46 -2 -10 -104 -40 -323 -97
-176 -46 -328 -83 -337 -84 -26 0 -37 -29 -54 -143 l-16 -104 57 -109 c32 -60
61 -114 66 -119 4 -6 103 -201 219 -433 221 -443 224 -448 281 -435 13 3 60
16 103 29 43 14 81 22 84 20 3 -3 0 -31 -7 -62 -6 -32 -10 -67 -10 -78 2 -33
28 104 29 150 0 22 -7 62 -16 88 -9 26 -15 48 -13 50 2 2 41 12 86 23 l82 20
10 -30 c6 -16 12 -57 12 -91 1 -34 4 -49 6 -35 4 24 15 29 161 73 226 68 322
99 318 103 -2 2 -102 -26 -222 -63 -121 -36 -227 -69 -236 -71 -13 -4 -18 0
-18 13 0 25 12 41 30 41 34 2 541 150 553 162 5 5 4 12 -2 15 -6 4 -11 12 -11
18 0 7 6 6 15 -2 8 -7 15 -25 15 -41 0 -25 -5 -30 -55 -45 -71 -23 -64 -31 8
-10 49 14 56 20 62 47 6 25 2 36 -22 61 l-28 31 29 -7 29 -7 -22 33 c-46 70
-48 78 -19 102 49 39 46 64 -18 173 -32 54 -68 107 -79 118 -34 33 -62 87 -68
131 -6 49 -109 214 -139 222 -21 5 -88 113 -88 143 0 10 -33 78 -72 149 -64
113 -76 129 -98 128 -14 0 -82 -14 -152 -31z m-88 -57 c8 -5 12 -11 9 -14 -3
-3 -14 1 -25 9 -21 16 -8 20 16 5z m78 -61 c47 -22 86 -38 88 -36 2 2 -23 16
-56 32 -33 16 -60 32 -60 37 0 4 1 8 3 8 14 0 272 -121 275 -129 5 -15 3 -15
-73 20 -37 16 -69 28 -71 26 -3 -2 34 -21 81 -42 73 -33 88 -37 97 -24 8 11 9
11 4 -3 -6 -20 9 -25 18 -5 3 8 5 7 4 -3 -1 -8 17 -44 40 -80 23 -35 38 -67
34 -71 -4 -3 -40 -16 -79 -29 -65 -20 -71 -24 -62 -41 7 -14 6 -19 -4 -19 -8
0 -20 -7 -27 -15 -7 -9 -18 -14 -24 -12 -7 3 -12 -3 -12 -13 0 -10 3 -17 7
-14 9 5 19 -35 13 -51 -3 -7 -15 -11 -27 -9 -21 4 -21 4 -2 -5 11 -5 15 -10 8
-10 -20 -2 -43 11 -37 20 3 5 0 9 -6 9 -7 0 -1 20 14 46 l25 45 -66 120 c-41
74 -72 119 -82 119 -19 0 -358 -92 -420 -114 -55 -20 -77 -20 -85 -1 -6 16 5
23 82 46 23 7 40 14 38 17 -6 5 -136 -38 -136 -45 0 -2 38 -86 84 -186 46
-100 119 -258 161 -352 42 -93 78 -171 80 -173 3 -3 71 17 289 84 60 19 119
35 130 35 16 1 13 4 -9 10 -22 6 -13 7 31 4 52 -4 66 -1 91 18 27 20 29 25 18
40 -9 12 -14 14 -17 6 -6 -17 -58 18 -58 40 0 13 -2 13 -9 2 -6 -9 -38 -16
-90 -21 -44 -4 -87 -13 -96 -20 -22 -18 -20 -2 10 97 17 54 32 86 45 93 11 6
20 21 20 33 0 18 2 20 11 7 9 -12 10 -12 5 4 -6 18 18 56 36 56 22 0 -5 -76
-31 -84 -9 -3 15 -3 53 -1 l68 4 -6 -37 c-15 -93 -15 -114 2 -50 9 37 20 70
24 73 3 4 14 -5 23 -19 15 -22 16 -36 8 -90 -5 -36 -6 -63 -1 -60 4 3 8 15 8
27 1 17 5 14 21 -17 17 -31 18 -40 7 -47 -9 -6 -9 -9 -1 -9 23 0 24 19 3 59
-11 23 -20 60 -20 85 0 25 -4 48 -10 51 -8 5 -15 55 -7 55 1 0 32 9 69 19 l67
19 51 -80 52 -79 -100 -152 c-114 -173 -87 -154 -325 -223 -70 -20 -125 -39
-123 -41 4 -4 205 51 319 87 15 5 27 6 27 3 0 -4 6 0 13 9 12 15 313 105 322
97 2 -3 2 -15 -1 -26 -5 -18 -31 -30 -149 -68 -156 -49 -165 -51 -165 -32 0 9
-2 9 -8 0 -9 -14 -190 -72 -576 -184 -76 -22 -79 -24 -98 -67 -22 -49 -18
-126 9 -159 8 -10 12 -13 9 -7 -3 6 33 21 87 36 83 23 93 24 99 9 14 -32 6
-38 -79 -65 -133 -40 -156 -35 -182 43 -32 98 4 203 80 233 42 17 42 18 9 12
l-35 -5 -245 497 c-135 273 -246 501 -248 508 -3 14 614 177 642 169 10 -3 57
-23 104 -44z m-736 -172 c25 -51 25 -54 7 -65 -28 -18 -49 -66 -56 -132 -3
-33 -9 -60 -13 -60 -4 0 -15 17 -24 38 -16 35 -16 44 -1 142 24 148 43 166 87
77z m791 -113 c15 -14 29 -42 33 -61 11 -56 -11 -199 -35 -225 -10 -11 -154
18 -207 41 -116 52 -169 159 -101 206 30 21 96 19 135 -5 40 -25 42 -25 42 -1
0 10 9 30 21 45 28 35 77 36 112 0z m-577 -321 c82 -169 132 -282 127 -289
-36 -48 -46 -70 -56 -123 l-11 -59 -134 261 -134 261 6 64 c8 77 41 162 63
162 2 0 65 -125 139 -277z m804 205 c14 -22 20 -47 18 -73 -3 -35 -6 -40 -30
-43 -25 -3 -26 -2 -21 36 4 26 1 42 -8 47 -7 5 -14 4 -17 -3 -6 -18 -22 -4
-22 18 0 22 26 50 46 50 8 0 23 -15 34 -32z m-459 -128 c38 -20 116 -42 192
-55 25 -4 37 -11 37 -22 0 -13 -9 -15 -59 -10 -97 10 -190 50 -238 101 -24 25
-43 53 -43 62 0 12 10 7 36 -20 19 -20 53 -45 75 -56z m523 58 c18 -25 21 -58
7 -58 -18 0 -41 32 -41 56 0 30 14 31 34 2z m346 -496 c0 -5 -64 -26 -142 -47
-152 -40 -251 -59 -133 -25 39 11 113 33 165 49 110 34 110 34 110 23z m-970
-187 c-33 -37 -50 -84 -51 -142 l-1 -58 -29 60 c-22 46 -29 74 -29 120 1 73
12 127 35 162 l18 27 38 -75 c36 -72 37 -75 19 -94z m965 106 c-12 -10 -186
-54 -192 -48 -4 5 163 55 187 56 8 1 10 -2 5 -8z m-378 -27 c-3 -3 -12 -4 -19
-1 -8 3 -5 6 6 6 11 1 17 -2 13 -5z m158 -34 c-11 -5 -27 -9 -35 -9 -9 0 -8 4
5 9 11 5 27 9 35 9 9 0 8 -4 -5 -9z m-695 -130 c0 -5 -2 -10 -4 -10 -3 0 -8 5
-11 10 -3 6 -1 10 4 10 6 0 11 -4 11 -10z m-5 -30 c3 -5 2 -10 -4 -10 -5 0
-13 5 -16 10 -3 6 -2 10 4 10 5 0 13 -4 16 -10z m5 -41 c0 -4 -7 -6 -15 -3 -8
4 -15 10 -15 15 0 4 7 6 15 3 8 -4 15 -10 15 -15z m0 -40 c0 -6 -4 -7 -10 -4
-5 3 -10 11 -10 16 0 6 5 7 10 4 6 -3 10 -11 10 -16z"/>
<path d="M1262 1813 c-81 -19 -75 -28 7 -12 33 7 62 11 64 8 3 -2 34 -58 71
-123 60 -110 64 -121 50 -137 -12 -13 -12 -19 -3 -25 8 -4 10 -3 5 5 -4 6 1
14 13 19 18 6 14 16 -53 134 -39 70 -76 132 -81 137 -6 5 -37 2 -73 -6z"/>
<path d="M1145 1780 c-13 -5 -14 -9 -5 -9 8 0 24 4 35 9 13 5 14 9 5 9 -8 0
-24 -4 -35 -9z"/>
<path d="M1010 1744 c-84 -25 -122 -42 -65 -30 49 11 181 54 165 55 -8 0 -53
-11 -100 -25z"/>
<path d="M1455 1317 c-13 -10 -16 -21 -11 -41 3 -14 1 -36 -5 -47 -15 -29 -1
-39 41 -30 27 5 36 12 38 31 2 14 8 29 13 35 15 16 10 44 -10 55 -26 14 -44
13 -66 -3z m12 -21 c-3 -7 -1 -18 5 -24 12 -12 -8 -72 -23 -72 -5 0 -3 13 5
29 11 20 12 31 4 39 -10 10 -5 42 8 42 3 0 4 -6 1 -14z"/>
<path d="M1605 1171 c-3 -5 -2 -12 3 -15 5 -3 9 1 9 9 0 17 -3 19 -12 6z"/>
<path d="M1746 938 c3 -5 10 -6 15 -3 13 9 11 12 -6 12 -8 0 -12 -4 -9 -9z"/>
<path d="M1205 811 c-105 -31 -134 -43 -87 -35 44 8 211 62 192 62 -8 0 -55
-12 -105 -27z"/>
<path d="M209 1856 c11 -12 5 -15 -31 -19 l-43 -4 43 -1 c44 -2 50 -9 30 -32
-7 -8 -4 -7 8 3 18 15 22 15 42 1 12 -8 22 -11 22 -5 0 5 -6 13 -12 18 -8 5 4
10 32 14 l45 6 -42 1 c-23 1 -45 7 -48 12 -4 6 -10 8 -15 5 -5 -3 -11 -1 -15
5 -3 5 -11 10 -17 10 -7 0 -6 -5 1 -14z"/>
<path d="M260 1859 c0 -5 5 -7 10 -4 6 3 10 8 10 11 0 2 -4 4 -10 4 -5 0 -10
-5 -10 -11z"/>
<path d="M450 1855 c0 -8 7 -15 15 -15 8 0 15 7 15 15 0 8 -7 15 -15 15 -8 0
-15 -7 -15 -15z"/>
<path d="M243 1765 c0 -22 2 -30 4 -17 2 12 2 30 0 40 -3 9 -5 -1 -4 -23z"/>
<path d="M322 1691 c-2 -26 -5 -32 -18 -27 -13 5 -14 3 -7 -6 6 -7 9 -21 8
-31 -2 -9 1 -15 5 -12 5 3 11 -9 13 -27 l4 -33 1 32 c2 26 5 31 20 27 14 -5
15 -4 2 5 -12 8 -13 14 -3 30 11 17 10 19 -1 15 -11 -4 -16 4 -19 28 l-4 33
-1 -34z"/>
<path d="M1861 1643 c-1 -14 -9 -23 -23 -26 l-23 -4 23 -2 c15 -1 22 -8 23
-23 1 -18 2 -19 6 -5 2 9 8 15 12 13 4 -3 8 1 8 9 0 8 -4 15 -8 15 -4 0 -10
10 -12 23 -4 22 -4 22 -6 0z"/>
<path d="M2018 1569 c-2 -13 -2 -44 1 -69 l5 -45 6 40 c5 38 7 40 45 46 l40 6
-38 2 c-29 1 -40 6 -46 23 -8 22 -8 22 -13 -3z"/>
<path d="M1963 1543 c9 -2 23 -2 30 0 6 3 -1 5 -18 5 -16 0 -22 -2 -12 -5z"/>
<path d="M1905 1409 c-10 -15 1 -23 20 -15 9 3 13 10 10 16 -8 13 -22 13 -30
-1z"/>
<path d="M1377 368 c-22 -155 -22 -175 3 -221 24 -44 10 -48 -30 -9 -25 25
-48 92 -51 150 -1 24 -17 -26 -18 -58 0 -17 2 -21 7 -12 6 9 12 0 20 -27 16
-53 63 -91 110 -91 l37 0 -32 20 c-52 31 -60 76 -38 224 9 68 16 129 14 135
-3 7 -12 -43 -22 -111z"/>
<path d="M1203 280 c0 -25 2 -35 4 -22 2 12 2 32 0 45 -2 12 -4 2 -4 -23z"/>
<path d="M1272 180 c0 -14 2 -19 5 -12 2 6 2 18 0 25 -3 6 -5 1 -5 -13z"/>
<path d="M1202 150 c0 -19 2 -27 5 -17 2 9 2 25 0 35 -3 9 -5 1 -5 -18z"/>
<path d="M1263 105 c0 -22 2 -30 4 -17 2 12 2 30 0 40 -3 9 -5 -1 -4 -23z"/>
<path d="M1210 98 c0 -22 54 -84 80 -91 25 -7 25 -1 -2 31 -13 17 -19 20 -15
9 12 -33 -17 -13 -40 29 -13 22 -23 32 -23 22z"/>
</g>
</svg>
